<svg width="36" height="36" viewBox="0 0 36 36" fill="none" xmlns="http://www.w3.org/2000/svg">
<path d="M0 18C0 8.05888 8.05888 0 18 0C27.9411 0 36 8.05888 36 18C36 27.9411 27.9411 36 18 36C8.05888 36 0 27.9411 0 18Z" fill="#999999"/>
<path d="M18.492 26.336C16.444 26.336 14.82 25.76 13.62 24.608C12.42 23.44 11.82 21.76 11.82 19.568V15.632C11.82 13.44 12.42 11.768 13.62 10.616C14.82 9.448 16.444 8.864 18.492 8.864C20.508 8.864 22.06 9.424 23.148 10.544C24.252 11.664 24.804 13.192 24.804 15.128V15.272H22.236V15.056C22.236 13.92 21.924 12.992 21.3 12.272C20.692 11.552 19.756 11.192 18.492 11.192C17.212 11.192 16.212 11.584 15.492 12.368C14.772 13.136 14.412 14.208 14.412 15.584V19.616C14.412 20.976 14.772 22.048 15.492 22.832C16.212 23.616 17.212 24.008 18.492 24.008C19.756 24.008 20.692 23.648 21.3 22.928C21.924 22.192 22.236 21.264 22.236 20.144V19.736H24.804V20.072C24.804 22.008 24.252 23.536 23.148 24.656C22.06 25.776 20.508 26.336 18.492 26.336Z" fill="white"/>
</svg>
