<svg width="22" height="22" viewBox="0 0 22 22" fill="none" xmlns="http://www.w3.org/2000/svg">
<path d="M15.9991 12.0004L11.9991 21.0004C11.2034 21.0004 10.4403 20.6843 9.87773 20.1217C9.31512 19.5591 8.99905 18.796 8.99905 18.0004V14.0004H3.33905C3.04915 14.0036 2.76199 13.9439 2.49748 13.8251C2.23297 13.7064 1.99744 13.5316 1.8072 13.3128C1.61695 13.0941 1.47655 12.8365 1.39571 12.5581C1.31488 12.2797 1.29555 11.987 1.33905 11.7004L2.71905 2.70036C2.79138 2.22346 3.03362 1.78875 3.40115 1.47636C3.76868 1.16396 4.23673 0.994909 4.71905 1.00036H15.9991M15.9991 12.0004V1.00036M15.9991 12.0004H18.6691C19.235 12.0104 19.785 11.8122 20.2145 11.4435C20.644 11.0749 20.9232 10.5613 20.9991 10.0004V3.00036C20.9232 2.43942 20.644 1.92586 20.2145 1.55718C19.785 1.1885 19.235 0.990352 18.6691 1.00036H15.9991" stroke="#999999" stroke-width="2" stroke-linecap="round" stroke-linejoin="round"/>
</svg>
